<svg width="24" height="24" viewBox="0 0 24 24" fill="none" xmlns="http://www.w3.org/2000/svg">
<path d="M15 15.5C15 16.605 13.657 17.5 12 17.5C10.343 17.5 9 16.605 9 15.5C9 14.395 10.343 13.5 12 13.5C13.657 13.5 15 14.395 15 15.5Z" fill="#B3B3B3"/>
<path d="M1.51088 9.37C1.60478 9.25424 1.72338 9.16094 1.85799 9.09692C1.9926 9.03291 2.13982 8.99979 2.28888 9H21.7069C21.8559 8.99987 22.0031 9.03306 22.1377 9.09714C22.2723 9.16123 22.3908 9.25458 22.4846 9.37038C22.5785 9.48617 22.6453 9.62148 22.6801 9.76641C22.7149 9.91133 22.7169 10.0622 22.6859 10.208L20.3469 21.208C20.2992 21.4321 20.1761 21.633 19.9981 21.7771C19.8201 21.9213 19.5979 22 19.3689 22H4.62788C4.39881 22 4.17669 21.9213 3.99867 21.7771C3.82065 21.633 3.69752 21.4321 3.64988 21.208L1.31088 10.208C1.27994 10.0623 1.28193 9.91157 1.31671 9.76677C1.35148 9.62196 1.41816 9.48674 1.51188 9.371L1.51088 9.37ZM3.52288 11L5.43588 20H18.5589L20.4719 11H3.52288ZM3.99788 2C3.99788 1.73478 4.10323 1.48043 4.29077 1.29289C4.47831 1.10536 4.73266 1 4.99788 1H18.9979C19.2631 1 19.5174 1.10536 19.705 1.29289C19.8925 1.48043 19.9979 1.73478 19.9979 2V6H17.9979V3H5.99788V6H3.99788V2Z" fill="#B3B3B3"/>
</svg>
