<svg width="16" height="16" viewBox="0 0 16 16" fill="none" xmlns="http://www.w3.org/2000/svg">
<g clip-path="url(#clip0_2147_3050)">
<path fill-rule="evenodd" clip-rule="evenodd" d="M7.43519 0.0307845C4.83876 0.286056 2.73458 1.50992 1.35707 3.56606C-2.18713 8.85623 1.6256 15.9974 7.996 16.0007C14.2869 16.0039 18.1028 9.09262 14.7638 3.74295C13.2411 1.3033 10.1935 -0.240395 7.43519 0.0307845ZM7.93878 4.29918C9.96655 4.42549 11.9048 4.94125 13.305 5.72714C13.6011 5.89337 13.6766 5.96032 13.7632 6.13367C14.0075 6.62247 13.6588 7.18905 13.1119 7.192C12.9101 7.19308 12.9559 7.21065 12.4138 6.92373C10.5242 5.92349 7.49109 5.49689 4.89438 5.86615C4.40726 5.93542 4.01799 6.01389 3.63542 6.11989C2.7031 6.37828 2.06843 5.51371 2.75001 4.91376C3.23892 4.4834 5.87802 4.17082 7.93878 4.29918ZM8.04499 7.08716C9.67859 7.28725 11.1343 7.75052 12.2924 8.43897C12.6746 8.66613 12.8114 8.95887 12.681 9.27027C12.5089 9.68124 12.1289 9.76128 11.6552 9.48635C9.60131 8.29418 6.60748 7.91295 4.19623 8.53652C3.60438 8.68959 3.50531 8.69222 3.31567 8.55992C2.86352 8.24451 2.97857 7.60748 3.5168 7.44608C4.12422 7.26392 4.96939 7.10992 5.71843 7.04488C6.14444 7.00789 7.61614 7.03465 8.04499 7.08716ZM7.30785 9.63166C9.36028 9.73931 11.7246 10.6207 11.7264 11.2789C11.7276 11.7227 11.3116 11.8948 10.8695 11.6334C9.13442 10.6076 6.89972 10.3373 4.36791 10.8471C3.83251 10.9549 3.71874 10.9558 3.57344 10.8535C3.30596 10.6651 3.30335 10.2462 3.56851 10.0598C3.90983 9.81977 6.10417 9.56855 7.30785 9.63166Z" fill="#1ED760"/>
</g>
<defs>
<clipPath id="clip0_2147_3050">
<rect width="16" height="16" fill="white"/>
</clipPath>
</defs>
</svg>
