<svg width="17" height="17" viewBox="0 0 17 17" fill="none" xmlns="http://www.w3.org/2000/svg">
<g clip-path="url(#clip0_2087_3070)">
<path d="M15.5807 8.49935C15.5807 12.4114 12.4094 15.5827 8.4974 15.5827M15.5807 8.49935C15.5807 4.58733 12.4094 1.41602 8.4974 1.41602M15.5807 8.49935H1.41406M8.4974 15.5827C4.58538 15.5827 1.41406 12.4114 1.41406 8.49935M8.4974 15.5827C10.2691 13.643 11.276 11.1258 11.3307 8.49935C11.276 5.87287 10.2691 3.35568 8.4974 1.41602M8.4974 15.5827C6.72566 13.643 5.71878 11.1258 5.66406 8.49935C5.71878 5.87287 6.72566 3.35568 8.4974 1.41602M1.41406 8.49935C1.41406 4.58733 4.58538 1.41602 8.4974 1.41602" stroke="white" stroke-width="1.5" stroke-linecap="round" stroke-linejoin="round"/>
</g>
<defs>
<clipPath id="clip0_2087_3070">
<rect width="17" height="17" fill="white"/>
</clipPath>
</defs>
</svg>
