<svg width="40" height="40" viewBox="0 0 40 40" fill="none" xmlns="http://www.w3.org/2000/svg">
<rect width="40" height="40" rx="20" fill="#292929"/>
<path d="M28 19.9987C27.9998 18.47 27.5615 16.9733 26.737 15.6858C25.9126 14.3984 24.7365 13.3741 23.3481 12.7343C21.9596 12.0945 20.4169 11.8659 18.9026 12.0756C17.3882 12.2854 15.9657 12.9246 14.8034 13.9177C13.641 14.9107 12.7876 16.216 12.3441 17.6791C11.9005 19.1421 11.8855 20.7016 12.3007 22.1729C12.716 23.6442 13.5441 24.9658 14.6871 25.981C15.83 26.9963 17.24 27.6629 18.75 27.9017V22.3117H16.719V19.9987H18.75V18.2357C18.75 16.2307 19.944 15.1237 21.772 15.1237C22.647 15.1237 23.562 15.2797 23.562 15.2797V17.2487H22.554C21.56 17.2487 21.25 17.8657 21.25 18.4987V19.9987H23.469L23.114 22.3117H21.25V27.9017C23.1317 27.6037 24.8454 26.644 26.0827 25.1953C27.32 23.7466 27.9999 21.9039 28 19.9987Z" fill="white"/>
</svg>
