<svg width="16" height="16" viewBox="0 0 16 16" fill="none" xmlns="http://www.w3.org/2000/svg">
<path d="M16 7.99875C15.9998 6.46996 15.5615 4.97325 14.737 3.68581C13.9126 2.39837 12.7365 1.37412 11.3481 0.734308C9.95962 0.0944948 8.4169 -0.134083 6.90257 0.0756348C5.38823 0.285353 3.9657 0.924584 2.80337 1.91765C1.64104 2.91072 0.787596 4.21604 0.344069 5.67907C-0.099457 7.14211 -0.114491 8.7016 0.300748 10.1729C0.715987 11.6442 1.54411 12.9658 2.68708 13.981C3.83004 14.9963 5.23999 15.6629 6.75 15.9017V10.3117H4.719V7.99875H6.75V6.23575C6.75 4.23075 7.944 3.12375 9.772 3.12375C10.647 3.12375 11.562 3.27975 11.562 3.27975V5.24875H10.554C9.56 5.24875 9.25 5.86575 9.25 6.49875V7.99875H11.469L11.114 10.3117H9.25V15.9017C11.1317 15.6037 12.8454 14.644 14.0827 13.1953C15.32 11.7466 15.9999 9.90393 16 7.99875Z" fill="white"/>
</svg>
