<svg width="16" height="16" viewBox="0 0 16 16" fill="none" xmlns="http://www.w3.org/2000/svg">
<g clip-path="url(#clip0_2132_3159)">
<path d="M8 1.44005C10.136 1.44005 10.389 1.44905 11.233 1.48705C12.013 1.52305 12.436 1.65305 12.718 1.76305C13.066 1.89105 13.381 2.09505 13.639 2.36105C13.905 2.61905 14.109 2.93405 14.238 3.28205C14.348 3.56405 14.478 3.98805 14.513 4.76705C14.552 5.61105 14.56 5.86405 14.56 8.00005C14.56 10.136 14.552 10.389 14.513 11.232C14.478 12.012 14.347 12.436 14.238 12.718C14.1047 13.0628 13.9007 13.376 13.6393 13.6374C13.3779 13.8988 13.0648 14.1027 12.72 14.236C12.438 14.346 12.014 14.476 11.234 14.511C10.391 14.55 10.137 14.558 8.001 14.558C5.865 14.558 5.611 14.55 4.769 14.511C3.989 14.476 3.565 14.346 3.283 14.236C2.93503 14.1078 2.62029 13.9031 2.362 13.637C2.09603 13.379 1.89134 13.0647 1.763 12.717C1.653 12.435 1.523 12.011 1.488 11.231C1.45 10.387 1.441 10.135 1.441 7.99905C1.441 5.86305 1.45 5.60905 1.488 4.76605C1.524 3.98605 1.654 3.56305 1.763 3.28105C1.892 2.93305 2.096 2.61805 2.362 2.36005C2.62028 2.09442 2.93459 1.88978 3.282 1.76105C3.565 1.65105 3.989 1.52105 4.769 1.48605C5.612 1.44805 5.865 1.43905 8.001 1.43905L8 1.44005ZM8.001 -0.00195312C5.829 -0.00195312 5.556 0.00804688 4.703 0.0460469C3.849 0.0860469 3.268 0.222047 2.76 0.419047C2.22625 0.620183 1.74272 0.935148 1.343 1.34205C0.936 1.74205 0.621 2.22505 0.42 2.75905C0.222 3.26705 0.087 3.84905 0.048 4.70105C0.01 5.55205 0 5.82605 0 8.00005C0 10.172 0.01 10.445 0.048 11.298C0.088 12.151 0.222 12.731 0.42 13.239C0.62 13.773 0.936 14.256 1.343 14.656C1.743 15.063 2.226 15.378 2.76 15.579C3.268 15.777 3.85 15.912 4.702 15.951C5.554 15.99 5.828 15.999 8.001 15.999C10.173 15.999 10.446 15.989 11.299 15.951C12.152 15.911 12.732 15.777 13.239 15.579C13.7706 15.3737 14.2534 15.0595 14.6564 14.6565C15.0594 14.2535 15.3737 13.7707 15.579 13.239C15.778 12.731 15.913 12.149 15.952 11.297C15.991 10.446 16 10.172 16 7.99905C16 5.82605 15.99 5.55405 15.952 4.70105C15.912 3.84805 15.778 3.26805 15.58 2.76105C15.3791 2.22689 15.0641 1.74297 14.657 1.34305C14.2573 0.936148 13.7737 0.621183 13.24 0.420047C12.732 0.223047 12.15 0.0870469 11.298 0.0490469C10.447 0.00804687 10.173 -0.000953125 8 -0.000953125L8.001 -0.00195312Z" fill="white"/>
<path d="M7.99862 3.89253C6.90912 3.89253 5.86423 4.32534 5.09383 5.09574C4.32343 5.86614 3.89063 6.91102 3.89062 8.00053C3.89063 9.09004 4.32343 10.1349 5.09383 10.9053C5.86423 11.6757 6.90912 12.1085 7.99862 12.1085C9.08813 12.1085 10.133 11.6757 10.9034 10.9053C11.6738 10.1349 12.1066 9.09004 12.1066 8.00053C12.1066 6.91102 11.6738 5.86614 10.9034 5.09574C10.133 4.32534 9.08813 3.89253 7.99862 3.89253ZM7.99862 10.6675C7.64398 10.6744 7.29152 10.6105 6.96187 10.4795C6.63222 10.3485 6.332 10.1531 6.07876 9.90477C5.82553 9.65639 5.62436 9.36 5.48703 9.03295C5.34971 8.7059 5.27897 8.35474 5.27897 8.00003C5.27897 7.64532 5.34971 7.29417 5.48703 6.96711C5.62436 6.64006 5.82553 6.34368 6.07876 6.0953C6.332 5.84692 6.63222 5.65153 6.96187 5.52056C7.29152 5.38959 7.64398 5.32566 7.99862 5.33253C8.69715 5.34606 9.36249 5.63304 9.85171 6.13182C10.3409 6.6306 10.615 7.30138 10.615 8.00003C10.615 8.69868 10.3409 9.36946 9.85171 9.86824C9.36249 10.367 8.69715 10.654 7.99862 10.6675ZM12.2686 4.68953C12.5232 4.68953 12.7674 4.58839 12.9474 4.40835C13.1275 4.22832 13.2286 3.98414 13.2286 3.72953C13.2286 3.47492 13.1275 3.23074 12.9474 3.05071C12.7674 2.87067 12.5232 2.76953 12.2686 2.76953C12.014 2.76953 11.7698 2.87067 11.5898 3.05071C11.4098 3.23074 11.3086 3.47492 11.3086 3.72953C11.3086 3.98414 11.4098 4.22832 11.5898 4.40835C11.7698 4.58839 12.014 4.68953 12.2686 4.68953Z" fill="white"/>
</g>
<defs>
<clipPath id="clip0_2132_3159">
<rect width="16" height="16" fill="white"/>
</clipPath>
</defs>
</svg>
