<svg width="40" height="40" viewBox="0 0 40 40" fill="none" xmlns="http://www.w3.org/2000/svg">
<rect width="40" height="40" rx="20" fill="#292929"/>
<g clip-path="url(#clip0_2119_3093)">
<path d="M20 13.44C22.136 13.44 22.389 13.449 23.233 13.487C24.013 13.523 24.436 13.653 24.718 13.763C25.066 13.891 25.381 14.095 25.639 14.361C25.905 14.619 26.109 14.934 26.238 15.282C26.348 15.564 26.478 15.988 26.513 16.767C26.552 17.611 26.56 17.864 26.56 20C26.56 22.136 26.552 22.389 26.513 23.232C26.478 24.012 26.347 24.436 26.238 24.718C26.1047 25.0628 25.9007 25.376 25.6393 25.6374C25.3779 25.8988 25.0648 26.1027 24.72 26.236C24.438 26.346 24.014 26.476 23.234 26.511C22.391 26.55 22.137 26.558 20.001 26.558C17.865 26.558 17.611 26.55 16.769 26.511C15.989 26.476 15.565 26.346 15.283 26.236C14.935 26.1078 14.6203 25.9031 14.362 25.637C14.096 25.379 13.8913 25.0647 13.763 24.717C13.653 24.435 13.523 24.011 13.488 23.231C13.45 22.387 13.441 22.135 13.441 19.999C13.441 17.863 13.45 17.609 13.488 16.766C13.524 15.986 13.654 15.563 13.763 15.281C13.892 14.933 14.096 14.618 14.362 14.36C14.6203 14.0944 14.9346 13.8898 15.282 13.761C15.565 13.651 15.989 13.521 16.769 13.486C17.612 13.448 17.865 13.439 20.001 13.439L20 13.44ZM20.001 11.998C17.829 11.998 17.556 12.008 16.703 12.046C15.849 12.086 15.268 12.222 14.76 12.419C14.2263 12.6202 13.7427 12.9351 13.343 13.342C12.936 13.742 12.621 14.225 12.42 14.759C12.222 15.267 12.087 15.849 12.048 16.701C12.01 17.552 12 17.826 12 20C12 22.172 12.01 22.445 12.048 23.298C12.088 24.151 12.222 24.731 12.42 25.239C12.62 25.773 12.936 26.256 13.343 26.656C13.743 27.063 14.226 27.378 14.76 27.579C15.268 27.777 15.85 27.912 16.702 27.951C17.554 27.99 17.828 27.999 20.001 27.999C22.173 27.999 22.446 27.989 23.299 27.951C24.152 27.911 24.732 27.777 25.239 27.579C25.7706 27.3737 26.2534 27.0595 26.6564 26.6565C27.0594 26.2535 27.3737 25.7707 27.579 25.239C27.778 24.731 27.913 24.149 27.952 23.297C27.991 22.446 28 22.172 28 19.999C28 17.826 27.99 17.554 27.952 16.701C27.912 15.848 27.778 15.268 27.58 14.761C27.3791 14.2269 27.0641 13.743 26.657 13.343C26.2573 12.9361 25.7737 12.6212 25.24 12.42C24.732 12.223 24.15 12.087 23.298 12.049C22.447 12.008 22.173 11.999 20 11.999L20.001 11.998Z" fill="white"/>
<path d="M19.9986 15.8925C18.9091 15.8925 17.8642 16.3253 17.0938 17.0957C16.3234 17.8661 15.8906 18.911 15.8906 20.0005C15.8906 21.09 16.3234 22.1349 17.0938 22.9053C17.8642 23.6757 18.9091 24.1085 19.9986 24.1085C21.0881 24.1085 22.133 23.6757 22.9034 22.9053C23.6738 22.1349 24.1066 21.09 24.1066 20.0005C24.1066 18.911 23.6738 17.8661 22.9034 17.0957C22.133 16.3253 21.0881 15.8925 19.9986 15.8925ZM19.9986 22.6675C19.644 22.6744 19.2915 22.6105 18.9619 22.4795C18.6322 22.3485 18.332 22.1531 18.0788 21.9048C17.8255 21.6564 17.6244 21.36 17.487 21.0329C17.3497 20.7059 17.279 20.3547 17.279 20C17.279 19.6453 17.3497 19.2942 17.487 18.9671C17.6244 18.6401 17.8255 18.3437 18.0788 18.0953C18.332 17.8469 18.6322 17.6515 18.9619 17.5206C19.2915 17.3896 19.644 17.3257 19.9986 17.3325C20.6971 17.3461 21.3625 17.633 21.8517 18.1318C22.3409 18.6306 22.615 19.3014 22.615 20C22.615 20.6987 22.3409 21.3695 21.8517 21.8682C21.3625 22.367 20.6971 22.654 19.9986 22.6675ZM24.2686 16.6895C24.5232 16.6895 24.7674 16.5884 24.9474 16.4084C25.1275 16.2283 25.2286 15.9841 25.2286 15.7295C25.2286 15.4749 25.1275 15.2307 24.9474 15.0507C24.7674 14.8707 24.5232 14.7695 24.2686 14.7695C24.014 14.7695 23.7698 14.8707 23.5898 15.0507C23.4098 15.2307 23.3086 15.4749 23.3086 15.7295C23.3086 15.9841 23.4098 16.2283 23.5898 16.4084C23.7698 16.5884 24.014 16.6895 24.2686 16.6895Z" fill="white"/>
</g>
<defs>
<clipPath id="clip0_2119_3093">
<rect width="16" height="16" fill="white" transform="translate(12 12)"/>
</clipPath>
</defs>
</svg>
