<svg width="40" height="40" viewBox="0 0 40 40" fill="none" xmlns="http://www.w3.org/2000/svg">
<rect width="40" height="40" rx="20" fill="#292929"/>
<path d="M26.1183 15.0629C26.8099 14.6569 27.3247 14.0069 27.5615 13.2407C26.9174 13.627 26.2105 13.8975 25.473 14.0398C25.1699 13.7136 24.8028 13.4533 24.3946 13.2754C23.9793 13.0919 23.5299 12.9982 23.0759 13.0004C22.6439 12.9938 22.2152 13.0758 21.8161 13.2413C21.4171 13.4068 21.0562 13.6524 20.7557 13.9629C20.4448 14.2646 20.199 14.6268 20.0334 15.0271C19.8679 15.4275 19.7861 15.8575 19.7932 16.2907C19.7932 16.5202 19.8224 16.7692 19.8798 17.0388C18.5646 16.977 17.2781 16.6328 16.1077 16.0297C14.9515 15.4396 13.9326 14.6125 13.1173 13.6023C12.8235 14.1021 12.669 14.6715 12.6702 15.2513C12.6702 15.8132 12.8001 16.334 13.061 16.8158C13.3209 17.2976 13.6782 17.6873 14.1307 17.9851C13.6091 17.9769 13.0979 17.8376 12.6442 17.5802V17.6235C12.6442 18.4084 12.8932 19.1013 13.3913 19.7022C13.8661 20.2899 14.5326 20.6916 15.2741 20.8369C14.793 20.973 14.2867 20.9938 13.7962 20.8975C13.9963 21.548 14.3997 22.1172 14.9471 22.5216C15.498 22.9416 16.1707 23.1708 16.8634 23.1744C15.7058 24.1004 14.264 24.5983 12.7817 24.5841C12.5186 24.5841 12.2577 24.5668 12 24.5321C13.4969 25.5078 15.2477 26.0218 17.0345 26.01C18.0143 26.01 18.9433 25.8801 19.8192 25.6191C20.6962 25.3593 21.4714 25.002 22.1437 24.5494C22.8139 24.0996 23.426 23.5687 23.9659 22.9687C24.5072 22.3667 24.9522 21.7182 25.3019 21.022C25.6475 20.3365 25.9155 19.6146 26.101 18.8696C26.3171 18.0106 26.4068 17.1247 26.3673 16.2398C27.0072 15.7766 27.56 15.2036 28 14.5475C27.3937 14.8171 26.7657 14.9882 26.1183 15.0629Z" fill="white"/>
</svg>
