<svg width="16" height="13" viewBox="0 0 16 13" fill="none" xmlns="http://www.w3.org/2000/svg">
<path d="M14.1183 2.0629C14.8099 1.65688 15.3247 1.00693 15.5615 0.240728C14.9174 0.627046 14.2105 0.897478 13.473 1.03975C13.1699 0.713554 12.8028 0.453345 12.3946 0.275374C11.9793 0.0919405 11.5299 -0.00176947 11.0759 0.000370617C10.6439 -0.00624426 10.2152 0.0757521 9.81612 0.241298C9.41706 0.406843 9.05617 0.652425 8.75572 0.962882C8.44479 1.26456 8.19897 1.62675 8.03343 2.02711C7.86788 2.42746 7.78613 2.85749 7.79321 3.29067C7.79321 3.5202 7.82244 3.76922 7.87982 4.03881C6.56462 3.97698 5.27813 3.63283 4.10773 3.02974C2.95152 2.4396 1.9326 1.61251 1.11734 0.602347C0.823466 1.1021 0.669048 1.67154 0.670185 2.25128C0.670185 2.8132 0.800108 3.33397 1.06104 3.81577C1.32088 4.29757 1.67817 4.68734 2.13073 4.98508C1.60911 4.9769 1.09792 4.83765 0.644201 4.58015V4.62346C0.644201 5.40841 0.89322 6.10133 1.39126 6.70222C1.86607 7.28988 2.53265 7.69159 3.27406 7.83688C2.79305 7.97298 2.28673 7.99375 1.79618 7.89751C1.99634 8.54797 2.3997 9.11716 2.94708 9.52155C3.49799 9.94157 4.1707 10.1708 4.86345 10.1744C3.70583 11.1004 2.26403 11.5983 0.781703 11.5841C0.518609 11.5841 0.25768 11.5668 0 11.5321C1.49691 12.5078 3.24772 13.0218 5.03451 13.01C6.01435 13.01 6.94329 12.8801 7.81919 12.6191C8.69617 12.3593 9.47138 12.002 10.1437 11.5494C10.8139 11.0996 11.426 10.5687 11.9659 9.9687C12.5072 9.36673 12.9522 8.71819 13.3019 8.02202C13.6475 7.33651 13.9155 6.61458 14.101 5.86964C14.3171 5.01062 14.4068 4.12468 14.3673 3.23978C15.0072 2.77655 15.56 2.20362 16 1.54754C15.3937 1.81713 14.7657 1.98819 14.1183 2.0629Z" fill="white"/>
</svg>
